# xmcd
#
# Track frame offsets:
#	150
#	12462
#	31296
#	45141
#	56010
#	71253
#	105090
#	134841
#	160710
#	178812
#	209412
#	226575
#	251805
#	298152
#	316467
#
# Disc length: 4476
#
# Revision: 1
# Processed by: cddbd v1.5.1PL0 Copyright (c) Steve Scherf et al.
# Submitted via: CDex 1.51
# Normalized: r0:TDELIM( - )
#
DISCID=cd117a0f
DTITLE=Compilation Jazz - Jazz Contemporain - CD 03
DYEAR=2004
DGENRE=Jazz
TTITLE0=Bireli Lagrène - Blues Clair
TTITLE1=Philip Catherine - Blue Prince
TTITLE2=Stephane Grappeli and Michel Petrucciani - Little PeaceIn C For U
TTITLE3=Stan Getz - Lullaby Of Birdland
TTITLE4=Richard Galliano - Waltz For Nicky
TTITLE5=Steve Grossman - Song For My Mother
TTITLE6=Martial Solal - Just Friends
TTITLE7=Andre Ceccarelli - Walk On The Wild Side
TTITLE8=Sylvain Luc and Bireli Lagrène - Isn't She Lovely
TTITLE9=Maurice Vander - Satin Doll
TTITLE10=John Lewis - Django
TTITLE11=Stephane Grappeli - Minor Swing
TTITLE12=Michel and Tony Petrucciani - My Funny Valentine
TTITLE13=Jean Michel Pilc - Mood Indigo
TTITLE14=Michel Portal - Give Me A Chance
EXTD=YEAR: 2004
EXTT0=
EXTT1=
EXTT2=
EXTT3=
EXTT4=
EXTT5=
EXTT6=
EXTT7=
EXTT8=
EXTT9=
EXTT10=
EXTT11=
EXTT12=
EXTT13=
EXTT14=
PLAYORDER=
